<svg width="112" height="112" viewBox="0 0 112 112" fill="none" xmlns="http://www.w3.org/2000/svg">
<g filter="url(#filter0_dd_459_4183)">
<path d="M16 23.9998C16 12.2178 25.5513 2.6665 37.3333 2.6665H74.6667C86.4487 2.6665 96 12.2178 96 23.9998V61.3332C96 73.1152 86.4487 82.6665 74.6667 82.6665H37.3333C25.5513 82.6665 16 73.1152 16 61.3332V23.9998Z" fill="url(#paint0_linear_459_4183)" shape-rendering="crispEdges"/>
<path d="M49.7773 27.1113V33.3336" stroke="white" stroke-width="3.11111" stroke-linecap="round" stroke-linejoin="round"/>
<path d="M62.2217 27.1113V33.3336" stroke="white" stroke-width="3.11111" stroke-linecap="round" stroke-linejoin="round"/>
<path d="M66.8889 30.2227H45.1111C43.3929 30.2227 42 31.6155 42 33.3338V55.1115C42 56.8298 43.3929 58.2227 45.1111 58.2227H66.8889C68.6071 58.2227 70 56.8298 70 55.1115V33.3338C70 31.6155 68.6071 30.2227 66.8889 30.2227Z" stroke="white" stroke-width="3.11111" stroke-linecap="round" stroke-linejoin="round"/>
<path d="M42 39.5557H70" stroke="white" stroke-width="3.11111" stroke-linecap="round" stroke-linejoin="round"/>
</g>
<defs>
<filter id="filter0_dd_459_4183" x="0" y="-0.000163078" width="112" height="112" filterUnits="userSpaceOnUse" color-interpolation-filters="sRGB">
<feFlood flood-opacity="0" result="BackgroundImageFix"/>
<feColorMatrix in="SourceAlpha" type="matrix" values="0 0 0 0 0 0 0 0 0 0 0 0 0 0 0 0 0 0 127 0" result="hardAlpha"/>
<feMorphology radius="5.33333" operator="erode" in="SourceAlpha" result="effect1_dropShadow_459_4183"/>
<feOffset dy="5.33333"/>
<feGaussianBlur stdDeviation="4"/>
<feComposite in2="hardAlpha" operator="out"/>
<feColorMatrix type="matrix" values="0 0 0 0 0 0 0 0 0 0 0 0 0 0 0 0 0 0 0.1 0"/>
<feBlend mode="normal" in2="BackgroundImageFix" result="effect1_dropShadow_459_4183"/>
<feColorMatrix in="SourceAlpha" type="matrix" values="0 0 0 0 0 0 0 0 0 0 0 0 0 0 0 0 0 0 127 0" result="hardAlpha"/>
<feMorphology radius="4" operator="erode" in="SourceAlpha" result="effect2_dropShadow_459_4183"/>
<feOffset dy="13.3333"/>
<feGaussianBlur stdDeviation="10"/>
<feComposite in2="hardAlpha" operator="out"/>
<feColorMatrix type="matrix" values="0 0 0 0 0 0 0 0 0 0 0 0 0 0 0 0 0 0 0.1 0"/>
<feBlend mode="normal" in2="effect1_dropShadow_459_4183" result="effect2_dropShadow_459_4183"/>
<feBlend mode="normal" in="SourceGraphic" in2="effect2_dropShadow_459_4183" result="shape"/>
</filter>
<linearGradient id="paint0_linear_459_4183" x1="56" y1="2.6665" x2="56" y2="82.6665" gradientUnits="userSpaceOnUse">
<stop stop-color="#2B7FFF"/>
<stop offset="1" stop-color="#AD46FF"/>
</linearGradient>
</defs>
</svg>
