<svg width="65" height="65" viewBox="0 0 65 65" fill="none" xmlns="http://www.w3.org/2000/svg">
<path d="M0 17.3333C0 7.7604 7.7604 0 17.3333 0H47.6667C57.2396 0 65 7.7604 65 17.3333V47.6667C65 57.2396 57.2396 65 47.6667 65H17.3333C7.7604 65 0 57.2396 0 47.6667V17.3333Z" fill="url(#paint0_linear_680_3151)"/>
<path d="M27.4443 19.8613V24.9169" stroke="white" stroke-width="2.52778" stroke-linecap="round" stroke-linejoin="round"/>
<path d="M37.5554 19.8613V24.9169" stroke="white" stroke-width="2.52778" stroke-linecap="round" stroke-linejoin="round"/>
<path d="M41.3472 22.3887H23.6528C22.2567 22.3887 21.125 23.5204 21.125 24.9164V42.6109C21.125 44.0069 22.2567 45.1387 23.6528 45.1387H41.3472C42.7433 45.1387 43.875 44.0069 43.875 42.6109V24.9164C43.875 23.5204 42.7433 22.3887 41.3472 22.3887Z" stroke="white" stroke-width="2.52778" stroke-linecap="round" stroke-linejoin="round"/>
<path d="M21.125 29.9717H43.875" stroke="white" stroke-width="2.52778" stroke-linecap="round" stroke-linejoin="round"/>
<defs>
<linearGradient id="paint0_linear_680_3151" x1="32.5" y1="0" x2="32.5" y2="65" gradientUnits="userSpaceOnUse">
<stop stop-color="#2B7FFF"/>
<stop offset="1" stop-color="#AD46FF"/>
</linearGradient>
</defs>
</svg>
