<svg width="68" height="68" viewBox="0 0 68 68" fill="none" xmlns="http://www.w3.org/2000/svg">
<g filter="url(#filter0_ddi_453_5863)">
<path d="M9.59961 14.3995C9.59961 7.33032 15.3303 1.59961 22.3995 1.59961H44.7997C51.8689 1.59961 57.5996 7.33032 57.5996 14.3995V36.7997C57.5996 43.8689 51.8689 49.5996 44.7997 49.5996H22.3995C15.3303 49.5996 9.59961 43.8689 9.59961 36.7997V14.3995Z" fill="url(#paint0_linear_453_5863)" shape-rendering="crispEdges"/>
<path d="M41.0661 23.7333C41.0661 28.3934 35.8964 33.2467 34.1604 34.7457C33.9987 34.8673 33.8018 34.933 33.5995 34.933C33.3971 34.933 33.2003 34.8673 33.0385 34.7457C31.3025 33.2467 26.1328 28.3934 26.1328 23.7333C26.1328 21.753 26.9195 19.8538 28.3197 18.4535C29.72 17.0533 31.6192 16.2666 33.5995 16.2666C35.5798 16.2666 37.4789 17.0533 38.8792 18.4535C40.2795 19.8538 41.0661 21.753 41.0661 23.7333Z" stroke="white" stroke-width="1.86665" stroke-linecap="round" stroke-linejoin="round"/>
<path d="M33.5988 26.5336C35.1452 26.5336 36.3988 25.28 36.3988 23.7336C36.3988 22.1872 35.1452 20.9336 33.5988 20.9336C32.0524 20.9336 30.7988 22.1872 30.7988 23.7336C30.7988 25.28 32.0524 26.5336 33.5988 26.5336Z" stroke="white" stroke-width="1.86665" stroke-linecap="round" stroke-linejoin="round"/>
</g>
<defs>
<filter id="filter0_ddi_453_5863" x="-0.000308275" y="-0.000377417" width="67.1998" height="67.1998" filterUnits="userSpaceOnUse" color-interpolation-filters="sRGB">
<feFlood flood-opacity="0" result="BackgroundImageFix"/>
<feColorMatrix in="SourceAlpha" type="matrix" values="0 0 0 0 0 0 0 0 0 0 0 0 0 0 0 0 0 0 127 0" result="hardAlpha"/>
<feMorphology radius="3.19997" operator="erode" in="SourceAlpha" result="effect1_dropShadow_453_5863"/>
<feOffset dy="3.19997"/>
<feGaussianBlur stdDeviation="2.39998"/>
<feComposite in2="hardAlpha" operator="out"/>
<feColorMatrix type="matrix" values="0 0 0 0 0 0 0 0 0 0 0 0 0 0 0 0 0 0 0.1 0"/>
<feBlend mode="normal" in2="BackgroundImageFix" result="effect1_dropShadow_453_5863"/>
<feColorMatrix in="SourceAlpha" type="matrix" values="0 0 0 0 0 0 0 0 0 0 0 0 0 0 0 0 0 0 127 0" result="hardAlpha"/>
<feMorphology radius="2.39998" operator="erode" in="SourceAlpha" result="effect2_dropShadow_453_5863"/>
<feOffset dy="7.99993"/>
<feGaussianBlur stdDeviation="5.99995"/>
<feComposite in2="hardAlpha" operator="out"/>
<feColorMatrix type="matrix" values="0 0 0 0 0 0 0 0 0 0 0 0 0 0 0 0 0 0 0.1 0"/>
<feBlend mode="normal" in2="effect1_dropShadow_453_5863" result="effect2_dropShadow_453_5863"/>
<feBlend mode="normal" in="SourceGraphic" in2="effect2_dropShadow_453_5863" result="shape"/>
<feColorMatrix in="SourceAlpha" type="matrix" values="0 0 0 0 0 0 0 0 0 0 0 0 0 0 0 0 0 0 127 0" result="hardAlpha"/>
<feOffset dy="2.50848"/>
<feGaussianBlur stdDeviation="1.25424"/>
<feComposite in2="hardAlpha" operator="arithmetic" k2="-1" k3="1"/>
<feColorMatrix type="matrix" values="0 0 0 0 0 0 0 0 0 0 0 0 0 0 0 0 0 0 0.25 0"/>
<feBlend mode="normal" in2="shape" result="effect3_innerShadow_453_5863"/>
</filter>
<linearGradient id="paint0_linear_453_5863" x1="33.5996" y1="1.59961" x2="33.5996" y2="49.5996" gradientUnits="userSpaceOnUse">
<stop stop-color="#2B7FFF"/>
<stop offset="1" stop-color="#D946FF"/>
</linearGradient>
</defs>
</svg>
