<svg width="65" height="65" viewBox="0 0 65 65" fill="none" xmlns="http://www.w3.org/2000/svg">
<path d="M0 17.3333C0 7.7604 7.7604 0 17.3333 0H47.6667C57.2396 0 65 7.7604 65 17.3333V47.6667C65 57.2396 57.2396 65 47.6667 65H17.3333C7.7604 65 0 57.2396 0 47.6667V17.3333Z" fill="url(#paint0_linear_680_3161)"/>
<path d="M42.6109 29.9724C42.6109 36.283 35.6102 42.8553 33.2594 44.8851C33.0404 45.0497 32.7738 45.1388 32.4998 45.1388C32.2258 45.1388 31.9592 45.0497 31.7402 44.8851C29.3894 42.8553 22.3887 36.283 22.3887 29.9724C22.3887 27.2908 23.4539 24.719 25.3501 22.8228C27.2463 20.9266 29.8181 19.8613 32.4998 19.8613C35.1814 19.8613 37.7532 20.9266 39.6494 22.8228C41.5456 24.719 42.6109 27.2908 42.6109 29.9724Z" stroke="white" stroke-width="2.52778" stroke-linecap="round" stroke-linejoin="round"/>
<path d="M32.4999 33.764C34.594 33.764 36.2916 32.0664 36.2916 29.9723C36.2916 27.8783 34.594 26.1807 32.4999 26.1807C30.4058 26.1807 28.7083 27.8783 28.7083 29.9723C28.7083 32.0664 30.4058 33.764 32.4999 33.764Z" stroke="white" stroke-width="2.52778" stroke-linecap="round" stroke-linejoin="round"/>
<defs>
<linearGradient id="paint0_linear_680_3161" x1="32.5" y1="0" x2="32.5" y2="65" gradientUnits="userSpaceOnUse">
<stop stop-color="#2B7FFF"/>
<stop offset="1" stop-color="#D946FF"/>
</linearGradient>
</defs>
</svg>
