<svg width="24" height="24" viewBox="0 0 24 24" fill="none" xmlns="http://www.w3.org/2000/svg">
<path d="M19.4155 9.71111C19.4155 14.5597 14.0367 19.6094 12.2305 21.169C12.0622 21.2955 11.8574 21.3639 11.6469 21.3639C11.4364 21.3639 11.2315 21.2955 11.0633 21.169C9.25703 19.6094 3.87817 14.5597 3.87817 9.71111C3.87817 7.65071 4.69666 5.6747 6.15357 4.21779C7.61049 2.76088 9.58649 1.94238 11.6469 1.94238C13.7073 1.94238 15.6832 2.76088 17.1401 4.21779C18.5971 5.6747 19.4155 7.65071 19.4155 9.71111Z" stroke="#314158" stroke-width="1.94217" stroke-linecap="round" stroke-linejoin="round"/>
<path d="M11.6533 12.6215C13.2622 12.6215 14.5665 11.3171 14.5665 9.70819C14.5665 8.09924 13.2622 6.79492 11.6533 6.79492C10.0443 6.79492 8.73999 8.09924 8.73999 9.70819C8.73999 11.3171 10.0443 12.6215 11.6533 12.6215Z" stroke="#314158" stroke-width="1.94217" stroke-linecap="round" stroke-linejoin="round"/>
</svg>
