<svg width="87" height="32" viewBox="0 0 87 32" fill="none" xmlns="http://www.w3.org/2000/svg">
<path d="M0 6.54877C0 2.93198 2.93199 0 6.54878 0H79.8951C83.5119 0 86.4438 2.93199 86.4438 6.54878V24.8854C86.4438 28.5021 83.5119 31.4341 79.8951 31.4341H6.54878C2.93199 31.4341 0 28.5021 0 24.8853V6.54877Z" fill="url(#paint0_linear_831_2406)"/>
<path d="M35.8516 21V11.3636H39.6535C40.3812 11.3636 41.0023 11.4938 41.5168 11.7541C42.0343 12.0113 42.428 12.3768 42.6978 12.8504C42.9707 13.321 43.1071 13.8746 43.1071 14.5114C43.1071 15.1513 42.9691 15.7018 42.6931 16.163C42.417 16.6209 42.0171 16.9723 41.4932 17.217C40.9725 17.4616 40.342 17.584 39.6017 17.584H37.0561V15.9465H39.2723C39.6613 15.9465 39.9844 15.8932 40.2416 15.7865C40.4988 15.6799 40.6902 15.5199 40.8157 15.3066C40.9443 15.0933 41.0086 14.8282 41.0086 14.5114C41.0086 14.1915 40.9443 13.9217 40.8157 13.7021C40.6902 13.4825 40.4973 13.3163 40.2369 13.2033C39.9797 13.0873 39.655 13.0292 39.2629 13.0292H37.889V21H35.8516ZM41.0556 16.6147L43.4506 21H41.2015L38.8583 16.6147H41.0556ZM47.4278 21.1412C46.6843 21.1412 46.0444 20.9906 45.508 20.6895C44.9747 20.3852 44.5638 19.9554 44.2752 19.4002C43.9866 18.8418 43.8423 18.1815 43.8423 17.4193C43.8423 16.6758 43.9866 16.0234 44.2752 15.4619C44.5638 14.9004 44.97 14.4628 45.4939 14.1491C46.0209 13.8354 46.6388 13.6786 47.3478 13.6786C47.8246 13.6786 48.2684 13.7554 48.6794 13.9091C49.0934 14.0597 49.4542 14.2871 49.7616 14.5914C50.0721 14.8957 50.3137 15.2784 50.4862 15.7395C50.6587 16.1975 50.745 16.7339 50.745 17.3487V17.8992H44.6422V16.657H48.8582C48.8582 16.3684 48.7954 16.1128 48.67 15.8901C48.5445 15.6673 48.3704 15.4932 48.1477 15.3678C47.9281 15.2392 47.6724 15.1749 47.3807 15.1749C47.0764 15.1749 46.8067 15.2454 46.5714 15.3866C46.3393 15.5246 46.1573 15.7113 46.0256 15.9465C45.8938 16.1787 45.8264 16.4374 45.8233 16.7229V17.9039C45.8233 18.2615 45.8891 18.5705 46.0209 18.8309C46.1558 19.0912 46.3456 19.292 46.5902 19.4331C46.8349 19.5743 47.1251 19.6449 47.4607 19.6449C47.6834 19.6449 47.8873 19.6135 48.0724 19.5508C48.2575 19.488 48.4159 19.3939 48.5476 19.2685C48.6794 19.143 48.7798 18.9893 48.8488 18.8073L50.7026 18.9297C50.6085 19.3751 50.4156 19.7641 50.1239 20.0966C49.8353 20.426 49.462 20.6832 49.004 20.8683C48.5492 21.0502 48.0238 21.1412 47.4278 21.1412ZM57.8076 15.8336L55.9726 15.9465C55.9412 15.7897 55.8738 15.6485 55.7702 15.523C55.6667 15.3944 55.5303 15.2925 55.3609 15.2172C55.1946 15.1388 54.9954 15.0996 54.7633 15.0996C54.4528 15.0996 54.1908 15.1654 53.9775 15.2972C53.7642 15.4258 53.6576 15.5983 53.6576 15.8148C53.6576 15.9873 53.7266 16.1332 53.8646 16.2524C54.0026 16.3716 54.2395 16.4672 54.5751 16.5394L55.8832 16.8029C56.5858 16.9472 57.1097 17.1793 57.4547 17.4993C57.7998 17.8192 57.9723 18.2396 57.9723 18.7603C57.9723 19.2339 57.8327 19.6496 57.5535 20.0072C57.2775 20.3648 56.8979 20.644 56.4149 20.8447C55.9349 21.0423 55.3813 21.1412 54.7539 21.1412C53.7972 21.1412 53.0349 20.942 52.4671 20.5436C51.9025 20.1421 51.5716 19.5963 51.4743 18.9061L53.4458 18.8026C53.5054 19.0944 53.6497 19.3171 53.8787 19.4708C54.1077 19.6214 54.401 19.6966 54.7586 19.6966C55.1099 19.6966 55.3922 19.6292 55.6056 19.4943C55.822 19.3563 55.9318 19.1791 55.9349 18.9626C55.9318 18.7807 55.8549 18.6317 55.7044 18.5156C55.5538 18.3964 55.3217 18.3054 55.008 18.2427L53.7564 17.9933C53.0506 17.8522 52.5252 17.6075 52.1801 17.2593C51.8382 16.9111 51.6672 16.4672 51.6672 15.9277C51.6672 15.4634 51.7927 15.0635 52.0437 14.7279C52.2977 14.3922 52.6538 14.1334 53.1118 13.9515C53.5729 13.7695 54.1124 13.6786 54.7304 13.6786C55.6432 13.6786 56.3615 13.8715 56.8854 14.2573C57.4124 14.6432 57.7198 15.1686 57.8076 15.8336ZM62.2694 21.1412C61.526 21.1412 60.8861 20.9906 60.3497 20.6895C59.8164 20.3852 59.4055 19.9554 59.1169 19.4002C58.8283 18.8418 58.684 18.1815 58.684 17.4193C58.684 16.6758 58.8283 16.0234 59.1169 15.4619C59.4055 14.9004 59.8117 14.4628 60.3355 14.1491C60.8625 13.8354 61.4805 13.6786 62.1894 13.6786C62.6662 13.6786 63.1101 13.7554 63.521 13.9091C63.9351 14.0597 64.2958 14.2871 64.6032 14.5914C64.9138 14.8957 65.1553 15.2784 65.3278 15.7395C65.5004 16.1975 65.5866 16.7339 65.5866 17.3487V17.8992H59.4839V16.657H63.6998C63.6998 16.3684 63.6371 16.1128 63.5116 15.8901C63.3861 15.6673 63.212 15.4932 62.9893 15.3678C62.7697 15.2392 62.5141 15.1749 62.2224 15.1749C61.9181 15.1749 61.6483 15.2454 61.413 15.3866C61.1809 15.5246 60.999 15.7113 60.8672 15.9465C60.7355 16.1787 60.668 16.4374 60.6649 16.7229V17.9039C60.6649 18.2615 60.7308 18.5705 60.8625 18.8309C60.9974 19.0912 61.1872 19.292 61.4319 19.4331C61.6765 19.5743 61.9667 19.6449 62.3023 19.6449C62.5251 19.6449 62.729 19.6135 62.914 19.5508C63.0991 19.488 63.2575 19.3939 63.3893 19.2685C63.521 19.143 63.6214 18.9893 63.6904 18.8073L65.5443 18.9297C65.4502 19.3751 65.2573 19.7641 64.9655 20.0966C64.6769 20.426 64.3037 20.6832 63.8457 20.8683C63.3908 21.0502 62.8654 21.1412 62.2694 21.1412ZM70.4801 13.7727V15.2784H66.1277V13.7727H70.4801ZM67.1159 12.0411H69.1203V18.7791C69.1203 18.9642 69.1485 19.1085 69.205 19.212C69.2615 19.3124 69.3399 19.383 69.4403 19.4237C69.5438 19.4645 69.663 19.4849 69.7979 19.4849C69.892 19.4849 69.9861 19.4771 70.0802 19.4614C70.1743 19.4426 70.2464 19.4284 70.2966 19.419L70.6119 20.9106C70.5115 20.942 70.3703 20.978 70.1884 21.0188C70.0065 21.0627 69.7853 21.0894 69.525 21.0988C69.0419 21.1176 68.6184 21.0533 68.2545 20.9059C67.8938 20.7585 67.613 20.5295 67.4123 20.2189C67.2115 19.9084 67.1127 19.5163 67.1159 19.0426V12.0411Z" fill="white"/>
<g clip-path="url(#clip0_831_2406)">
<path d="M27.7535 17.7432C27.9995 16.5066 27.8732 15.2248 27.3907 14.0599C26.9082 12.895 26.0911 11.8994 25.0427 11.1989C23.9944 10.4984 22.7618 10.1245 21.501 10.1245C19.7188 10.1312 18.0082 10.8266 16.7268 12.0653L15.126 13.6662" stroke="white" stroke-width="1.94843" stroke-linecap="round" stroke-linejoin="round"/>
<path d="M15.126 10.1245V13.6662H18.6676" stroke="white" stroke-width="1.94843" stroke-linecap="round" stroke-linejoin="round"/>
<path d="M28.3481 23.4126V19.8709H24.8065" stroke="white" stroke-width="1.94843" stroke-linecap="round" stroke-linejoin="round"/>
<path d="M15.0712 16.4433C14.8252 17.6799 14.9515 18.9617 15.434 20.1266C15.9165 21.2915 16.7336 22.2871 17.782 22.9876C18.8303 23.6881 20.0629 24.062 21.3237 24.062C23.1059 24.0553 24.8165 23.3599 26.0979 22.1212L27.6987 20.5203" stroke="white" stroke-width="1.94843" stroke-linecap="round" stroke-linejoin="round"/>
</g>
<defs>
<linearGradient id="paint0_linear_831_2406" x1="43.2219" y1="0" x2="43.2219" y2="31.4341" gradientUnits="userSpaceOnUse">
<stop stop-color="#2B7FFF"/>
<stop offset="1" stop-color="#AD46FF"/>
</linearGradient>
<clipPath id="clip0_831_2406">
<rect width="17" height="17" fill="white" transform="translate(13 8)"/>
</clipPath>
</defs>
</svg>
