<svg width="27" height="27" viewBox="0 0 27 27" fill="none" xmlns="http://www.w3.org/2000/svg">
<path d="M3.27344 13.0871C3.27344 15.0284 3.84911 16.9262 4.92767 18.5404C6.00622 20.1545 7.53921 21.4126 9.33278 22.1555C11.1263 22.8985 13.0999 23.0928 15.004 22.7141C16.908 22.3354 18.657 21.4005 20.0297 20.0278C21.4025 18.655 22.3373 16.9061 22.7161 15.002C23.0948 13.098 22.9004 11.1244 22.1575 9.33082C21.4146 7.53725 20.1565 6.00427 18.5423 4.92571C16.9281 3.84716 15.0304 3.27148 13.089 3.27148C10.345 3.28181 7.71115 4.35254 5.73825 6.25979L3.27344 8.7246" stroke="#2B7FFF" stroke-width="2.18125" stroke-linecap="round" stroke-linejoin="round"/>
<path d="M3.27344 3.27148V8.7246H8.72655" stroke="#2B7FFF" stroke-width="2.18125" stroke-linecap="round" stroke-linejoin="round"/>
</svg>
