<svg width="72" height="72" viewBox="0 0 72 72" fill="none" xmlns="http://www.w3.org/2000/svg">
<g filter="url(#filter0_dd_453_5868)">
<mask id="path-1-inside-1_453_5868" fill="white">
<path d="M12 18C12 9.16344 19.1634 2 28 2H44C52.8366 2 60 9.16344 60 18V34C60 42.8366 52.8366 50 44 50H28C19.1634 50 12 42.8366 12 34V18Z"/>
</mask>
<path d="M12 18C12 9.16344 19.1634 2 28 2H44C52.8366 2 60 9.16344 60 18V34C60 42.8366 52.8366 50 44 50H28C19.1634 50 12 42.8366 12 34V18Z" fill="white" fill-opacity="0.9" shape-rendering="crispEdges"/>
<path d="M28 2V3.33333H44V2V0.666667H28V2ZM60 18H58.6667V34H60H61.3333V18H60ZM44 50V48.6667H28V50V51.3333H44V50ZM12 34H13.3333V18H12H10.6667V34H12ZM28 50V48.6667C19.8998 48.6667 13.3333 42.1002 13.3333 34H12H10.6667C10.6667 43.5729 18.4271 51.3333 28 51.3333V50ZM60 34H58.6667C58.6667 42.1002 52.1002 48.6667 44 48.6667V50V51.3333C53.5729 51.3333 61.3333 43.5729 61.3333 34H60ZM44 2V3.33333C52.1002 3.33333 58.6667 9.89982 58.6667 18H60H61.3333C61.3333 8.42707 53.5729 0.666667 44 0.666667V2ZM28 2V0.666667C18.4271 0.666667 10.6667 8.42706 10.6667 18H12H13.3333C13.3333 9.89982 19.8998 3.33333 28 3.33333V2Z" fill="white" mask="url(#path-1-inside-1_453_5868)"/>
<g filter="url(#filter1_d_453_5868)">
<path d="M44.5 17.5V34.5H27.5V17.5H44.5Z" stroke="#F3F4F6" shape-rendering="crispEdges"/>
<path d="M34.2537 20.1016C34.295 19.6669 34.497 19.2632 34.82 18.9693C35.1431 18.6755 35.5641 18.5127 36.0008 18.5127C36.4376 18.5127 36.8586 18.6755 37.1816 18.9693C37.5047 19.2632 37.7066 19.6669 37.748 20.1016C37.7728 20.3825 37.8649 20.6532 38.0166 20.8909C38.1682 21.1286 38.3749 21.3262 38.6191 21.4671C38.8633 21.608 39.1378 21.688 39.4195 21.7003C39.7012 21.7127 39.9817 21.6569 40.2372 21.5379C40.6341 21.3577 41.0837 21.3316 41.4987 21.4647C41.9137 21.5978 42.2643 21.8806 42.4824 22.258C42.7004 22.6353 42.7702 23.0803 42.6782 23.5063C42.5862 23.9323 42.339 24.3088 41.9847 24.5626C41.754 24.7245 41.5657 24.9396 41.4357 25.1896C41.3056 25.4397 41.2378 25.7174 41.2378 25.9993C41.2378 26.2811 41.3056 26.5588 41.4357 26.8089C41.5657 27.0589 41.754 27.274 41.9847 27.4359C42.339 27.6897 42.5862 28.0662 42.6782 28.4922C42.7702 28.9182 42.7004 29.3632 42.4824 29.7405C42.2643 30.1179 41.9137 30.4007 41.4987 30.5338C41.0837 30.6669 40.6341 30.6408 40.2372 30.4606C39.9817 30.3416 39.7012 30.2858 39.4195 30.2982C39.1378 30.3105 38.8633 30.3905 38.6191 30.5314C38.3749 30.6723 38.1682 30.8699 38.0166 31.1076C37.8649 31.3453 37.7728 31.616 37.748 31.8969C37.7066 32.3316 37.5047 32.7353 37.1816 33.0292C36.8586 33.323 36.4376 33.4858 36.0008 33.4858C35.5641 33.4858 35.1431 33.323 34.82 33.0292C34.497 32.7353 34.295 32.3316 34.2537 31.8969C34.2289 31.6159 34.1368 31.3451 33.9851 31.1073C33.8334 30.8696 33.6267 30.6718 33.3824 30.5309C33.1381 30.39 32.8634 30.31 32.5817 30.2978C32.2999 30.2856 32.0193 30.3414 31.7637 30.4606C31.3669 30.6408 30.9172 30.6669 30.5022 30.5338C30.0872 30.4007 29.7366 30.1179 29.5186 29.7405C29.3006 29.3632 29.2308 28.9182 29.3227 28.4922C29.4147 28.0662 29.6619 27.6897 30.0162 27.4359C30.2469 27.274 30.4353 27.0589 30.5653 26.8089C30.6953 26.5588 30.7632 26.2811 30.7632 25.9993C30.7632 25.7174 30.6953 25.4397 30.5653 25.1896C30.4353 24.9396 30.2469 24.7245 30.0162 24.5626C29.6624 24.3087 29.4157 23.9323 29.3239 23.5066C29.2321 23.0809 29.3019 22.6363 29.5197 22.2592C29.7375 21.882 30.0877 21.5994 30.5023 21.4661C30.9169 21.3328 31.3662 21.3584 31.763 21.5379C32.0185 21.6569 32.299 21.7127 32.5807 21.7003C32.8624 21.688 33.1369 21.608 33.3811 21.4671C33.6253 21.3262 33.832 21.1286 33.9836 20.8909C34.1353 20.6532 34.2274 20.3825 34.2522 20.1016" stroke="#6A7282" stroke-width="1.5" stroke-linecap="round" stroke-linejoin="round"/>
<path d="M36 28.25C37.2426 28.25 38.25 27.2426 38.25 26C38.25 24.7574 37.2426 23.75 36 23.75C34.7574 23.75 33.75 24.7574 33.75 26C33.75 27.2426 34.7574 28.25 36 28.25Z" stroke="#6A7282" stroke-width="1.5" stroke-linecap="round" stroke-linejoin="round"/>
</g>
</g>
<defs>
<filter id="filter0_dd_453_5868" x="0" y="0" width="72" height="72" filterUnits="userSpaceOnUse" color-interpolation-filters="sRGB">
<feFlood flood-opacity="0" result="BackgroundImageFix"/>
<feColorMatrix in="SourceAlpha" type="matrix" values="0 0 0 0 0 0 0 0 0 0 0 0 0 0 0 0 0 0 127 0" result="hardAlpha"/>
<feMorphology radius="4" operator="erode" in="SourceAlpha" result="effect1_dropShadow_453_5868"/>
<feOffset dy="4"/>
<feGaussianBlur stdDeviation="3"/>
<feComposite in2="hardAlpha" operator="out"/>
<feColorMatrix type="matrix" values="0 0 0 0 0 0 0 0 0 0 0 0 0 0 0 0 0 0 0.1 0"/>
<feBlend mode="normal" in2="BackgroundImageFix" result="effect1_dropShadow_453_5868"/>
<feColorMatrix in="SourceAlpha" type="matrix" values="0 0 0 0 0 0 0 0 0 0 0 0 0 0 0 0 0 0 127 0" result="hardAlpha"/>
<feMorphology radius="3" operator="erode" in="SourceAlpha" result="effect2_dropShadow_453_5868"/>
<feOffset dy="10"/>
<feGaussianBlur stdDeviation="7.5"/>
<feComposite in2="hardAlpha" operator="out"/>
<feColorMatrix type="matrix" values="0 0 0 0 0 0 0 0 0 0 0 0 0 0 0 0 0 0 0.1 0"/>
<feBlend mode="normal" in2="effect1_dropShadow_453_5868" result="effect2_dropShadow_453_5868"/>
<feBlend mode="normal" in="SourceGraphic" in2="effect2_dropShadow_453_5868" result="shape"/>
</filter>
<filter id="filter1_d_453_5868" x="23" y="17" width="26" height="26" filterUnits="userSpaceOnUse" color-interpolation-filters="sRGB">
<feFlood flood-opacity="0" result="BackgroundImageFix"/>
<feColorMatrix in="SourceAlpha" type="matrix" values="0 0 0 0 0 0 0 0 0 0 0 0 0 0 0 0 0 0 127 0" result="hardAlpha"/>
<feOffset dy="4"/>
<feGaussianBlur stdDeviation="2"/>
<feComposite in2="hardAlpha" operator="out"/>
<feColorMatrix type="matrix" values="0 0 0 0 0 0 0 0 0 0 0 0 0 0 0 0 0 0 0.25 0"/>
<feBlend mode="normal" in2="BackgroundImageFix" result="effect1_dropShadow_453_5868"/>
<feBlend mode="normal" in="SourceGraphic" in2="effect1_dropShadow_453_5868" result="shape"/>
</filter>
</defs>
</svg>
