<svg width="65" height="65" viewBox="0 0 65 65" fill="none" xmlns="http://www.w3.org/2000/svg">
<path d="M0 17.3333C0 7.7604 7.7604 0 17.3333 0H47.6667C57.2396 0 65 7.7604 65 17.3333V47.6667C65 57.2396 57.2396 65 47.6667 65H17.3333C7.7604 65 0 57.2396 0 47.6667V17.3333Z" fill="url(#paint0_linear_680_3157)"/>
<path d="M32.5 24.917V32.5003L37.5556 35.0281" stroke="white" stroke-width="2.52778" stroke-linecap="round" stroke-linejoin="round"/>
<path d="M32.5 45.1391C39.4802 45.1391 45.1389 39.4805 45.1389 32.5002C45.1389 25.52 39.4802 19.8613 32.5 19.8613C25.5197 19.8613 19.8611 25.52 19.8611 32.5002C19.8611 39.4805 25.5197 45.1391 32.5 45.1391Z" stroke="white" stroke-width="2.52778" stroke-linecap="round" stroke-linejoin="round"/>
<defs>
<linearGradient id="paint0_linear_680_3157" x1="32.5" y1="0" x2="32.5" y2="65" gradientUnits="userSpaceOnUse">
<stop stop-color="#2B7FFF"/>
<stop offset="1" stop-color="#C13DFF"/>
</linearGradient>
</defs>
</svg>
