<svg width="16" height="16" viewBox="0 0 16 16" fill="none" xmlns="http://www.w3.org/2000/svg">
<g clip-path="url(#clip0_127_780)">
<path d="M13.3272 6.66365C13.3272 9.99078 9.63626 13.4559 8.39683 14.5261C8.28136 14.6128 8.14081 14.6598 7.99634 14.6598C7.85188 14.6598 7.71133 14.6128 7.59586 14.5261C6.35643 13.4559 2.66547 9.99078 2.66547 6.66365C2.66547 5.24981 3.22711 3.89388 4.22684 2.89415C5.22658 1.89442 6.58251 1.33276 7.99634 1.33276C9.41018 1.33276 10.7661 1.89442 11.7658 2.89415C12.7656 3.89388 13.3272 5.24981 13.3272 6.66365Z" stroke="#314158" stroke-width="1.33272" stroke-linecap="round" stroke-linejoin="round"/>
<path d="M7.99633 8.66271C9.1004 8.66271 9.99541 7.76769 9.99541 6.66363C9.99541 5.55957 9.1004 4.66455 7.99633 4.66455C6.89227 4.66455 5.99725 5.55957 5.99725 6.66363C5.99725 7.76769 6.89227 8.66271 7.99633 8.66271Z" stroke="#314158" stroke-width="1.33272" stroke-linecap="round" stroke-linejoin="round"/>
</g>
<defs>
<clipPath id="clip0_127_780">
<rect width="15.9926" height="15.9926" fill="white"/>
</clipPath>
</defs>
</svg>
